<svg width="270" height="179" viewBox="0 0 270 179" fill="none" xmlns="http://www.w3.org/2000/svg">
<path d="M204.191 15.7032C203.172 15.8489 202.465 16.7925 202.611 17.8107C202.756 18.829 203.7 19.5364 204.718 19.3907L204.191 15.7032ZM238.202 14.6001C239.221 14.4544 239.928 13.5108 239.782 12.4926C239.637 11.4743 238.693 10.7669 237.675 10.9126L238.202 14.6001ZM247.505 58.7999C246.477 58.7999 245.643 59.6338 245.643 60.6624C245.643 61.6911 246.477 62.525 247.505 62.525V58.7999ZM266.639 62.525C267.668 62.525 268.502 61.6911 268.502 60.6624C268.502 59.6338 267.668 58.7999 266.639 58.7999V62.525ZM197.808 -25.5685C197.808 -24.5399 198.642 -23.706 199.671 -23.706C200.7 -23.706 201.533 -24.5399 201.533 -25.5685H197.808ZM201.533 -44.731C201.533 -45.7596 200.7 -46.5935 199.671 -46.5935C198.642 -46.5935 197.808 -45.7596 197.808 -44.731H201.533ZM165.254 -19.1655C166.145 -18.6506 167.284 -18.9551 167.799 -19.8456C168.314 -20.7361 168.01 -21.8754 167.119 -22.3903L165.254 -19.1655ZM150.549 -31.9715C149.659 -32.4864 148.52 -32.182 148.005 -31.2915C147.49 -30.401 147.794 -29.2617 148.685 -28.7468L150.549 -31.9715ZM207.487 58.3417C208.179 57.5807 208.124 56.4027 207.362 55.7106C206.601 55.0186 205.423 55.0746 204.731 55.8356L207.487 58.3417ZM191.854 69.9966C191.162 70.7577 191.218 71.9356 191.979 72.6277C192.74 73.3197 193.918 73.2638 194.61 72.5027L191.854 69.9966ZM233.927 108.157C234.953 108.222 235.838 107.442 235.904 106.416C235.969 105.389 235.189 104.504 234.163 104.439L233.927 108.157ZM203.97 102.523C202.943 102.458 202.058 103.237 201.993 104.264C201.928 105.29 202.707 106.175 203.734 106.24L203.97 102.523ZM149.974 -73.4746C149.974 -72.446 150.808 -71.6121 151.837 -71.6121C152.865 -71.6121 153.699 -72.446 153.699 -73.4746H149.974ZM153.699 -92.6371C153.699 -93.6657 152.865 -94.4996 151.837 -94.4996C150.808 -94.4996 149.974 -93.6657 149.974 -92.6371H153.699ZM108.457 -36.4166C108.096 -35.4534 108.585 -34.3799 109.548 -34.0189C110.511 -33.6579 111.585 -34.1461 111.946 -35.1093L108.457 -36.4166ZM118.671 -53.055C119.032 -54.0182 118.544 -55.0917 117.581 -55.4527C116.617 -55.8136 115.544 -55.3254 115.183 -54.3622L118.671 -53.055ZM65.6684 -14.8863C64.652 -14.7282 63.9561 -13.7761 64.1142 -12.7597C64.2723 -11.7432 65.2244 -11.0474 66.2408 -11.2055L65.6684 -14.8863ZM85.1545 -14.1469C86.171 -14.305 86.8668 -15.2571 86.7087 -16.2735C86.5507 -17.29 85.5985 -17.9858 84.5821 -17.8277L85.1545 -14.1469ZM67.5309 -55.2364C66.8459 -54.469 66.9126 -53.2916 67.68 -52.6066C68.4474 -51.9215 69.6248 -51.9883 70.3098 -52.7557L67.5309 -55.2364ZM83.0624 -67.0413C83.7475 -67.8086 83.6807 -68.986 82.9133 -69.6711C82.146 -70.3561 80.9686 -70.2893 80.2835 -69.522L83.0624 -67.0413ZM3.79966 76.1066C3.53466 75.1127 2.51409 74.5218 1.52016 74.7868C0.526238 75.0518 -0.0646682 76.0723 0.200338 77.0663L3.79966 76.1066ZM37.0339 137.312L38.3519 135.996L38.3499 135.994L37.0339 137.312ZM0.200193 5.93428C-0.064508 6.92829 0.526712 7.94868 1.52072 8.21337C2.51473 8.47807 3.53511 7.88686 3.79981 6.89285L0.200193 5.93428ZM160.086 68.9284C144.962 84.0744 120.444 84.0744 105.32 68.9284L102.684 71.5604C119.263 88.1638 146.143 88.1638 162.722 71.5604L160.086 68.9284ZM105.32 68.9284C90.1955 53.7808 90.1955 29.2206 105.32 14.0731L102.684 11.4411C86.1074 28.0429 86.1074 54.9586 102.684 71.5604L105.32 68.9284ZM105.32 14.0731C120.444 -1.0729 144.962 -1.0729 160.086 14.0731L162.722 11.4411C146.143 -5.16231 119.263 -5.16231 102.684 11.4411L105.32 14.0731ZM160.086 14.0731C175.211 29.2206 175.211 53.7808 160.086 68.9284L162.722 71.5604C179.299 54.9586 179.299 28.0429 162.722 11.4411L160.086 14.0731ZM27.4672 -44.7315C25.6067 -44.643 25.6068 -44.6425 25.6068 -44.6418C25.6068 -44.6414 25.6069 -44.6405 25.6069 -44.6397C25.607 -44.638 25.6071 -44.6356 25.6072 -44.6327C25.6075 -44.6268 25.608 -44.6185 25.6085 -44.6078C25.6096 -44.5864 25.6112 -44.5553 25.6134 -44.5149C25.6177 -44.4341 25.6244 -44.3158 25.6338 -44.162C25.6525 -43.8544 25.6821 -43.4045 25.7258 -42.8279C25.8132 -41.6748 25.9572 -40.0138 26.184 -37.9689C26.6375 -33.8817 27.4236 -28.2479 28.7556 -22.063C31.3974 -9.7962 36.2671 5.04247 45.2829 14.0719L47.9189 11.4398C39.7144 3.22304 35.0172 -10.6819 32.3972 -22.8473C31.0983 -28.8784 30.3298 -34.3828 29.8864 -38.3797C29.6648 -40.3769 29.5247 -41.9945 29.4402 -43.1094C29.398 -43.6668 29.3696 -44.0984 29.352 -44.3886C29.3431 -44.5337 29.3369 -44.6435 29.333 -44.7161C29.331 -44.7523 29.3297 -44.7793 29.3288 -44.7967C29.3283 -44.8054 29.328 -44.8117 29.3278 -44.8156C29.3277 -44.8175 29.3277 -44.8188 29.3276 -44.8196C29.3276 -44.8199 29.3276 -44.82 29.3276 -44.8202C29.3276 -44.8201 29.3276 -44.8199 27.4672 -44.7315ZM45.2829 14.0719C51.3797 20.1778 60.1033 24.3597 68.8154 27.2397C77.5585 30.1301 86.4691 31.7666 93.0999 32.6807L93.6087 28.9905C87.1041 28.0938 78.4356 26.4967 69.9846 23.7029C61.5027 20.8989 53.4172 16.9464 47.9189 11.4398L45.2829 14.0719ZM128.701 82.0879C129.251 90.8017 131.776 100.695 139.086 108.016L141.722 105.384C135.314 98.9654 132.94 90.1174 132.419 81.8533L128.701 82.0879ZM139.086 108.016C147.841 116.783 157.517 115.905 166.295 115.167C175.168 114.42 183.142 113.813 190.556 121.238L193.192 118.606C184.438 109.838 174.761 110.716 165.983 111.455C157.11 112.201 149.136 112.809 141.722 105.384L139.086 108.016ZM190.556 121.238C200.213 130.91 200.643 146.043 199.551 156.15L203.254 156.55C204.363 146.287 204.142 129.572 193.192 118.606L190.556 121.238ZM204.718 19.3907L238.202 14.6001L237.675 10.9126L204.191 15.7032L204.718 19.3907ZM247.505 62.525H266.639V58.7999H247.505V62.525ZM201.533 -25.5685V-44.731H197.808V-25.5685H201.533ZM167.119 -22.3903L150.549 -31.9715L148.685 -28.7468L165.254 -19.1655L167.119 -22.3903ZM204.731 55.8356L191.854 69.9966L194.61 72.5027L207.487 58.3417L204.731 55.8356ZM234.163 104.439L203.97 102.523L203.734 106.24L233.927 108.157L234.163 104.439ZM153.699 -73.4746V-92.6371H149.974V-73.4746H153.699ZM111.946 -35.1093L118.671 -53.055L115.183 -54.3622L108.457 -36.4166L111.946 -35.1093ZM66.2408 -11.2055L85.1545 -14.1469L84.5821 -17.8277L65.6684 -14.8863L66.2408 -11.2055ZM70.3098 -52.7557L83.0624 -67.0413L80.2835 -69.522L67.5309 -55.2364L70.3098 -52.7557ZM0.200338 77.0663C6.41229 100.365 18.6656 121.604 35.7179 138.63L38.3499 135.994C21.7624 119.432 9.84262 98.7711 3.79966 76.1066L0.200338 77.0663ZM35.7159 138.628C89.2814 192.274 176.124 192.274 229.69 138.628L227.054 135.996C174.943 188.185 90.4622 188.185 38.3519 135.996L35.7159 138.628ZM229.69 138.628C283.253 84.984 283.253 -1.98399 229.69 -55.6282L227.054 -52.9962C279.165 -0.806229 279.165 83.8062 227.054 135.996L229.69 138.628ZM229.69 -55.6282C176.124 -109.274 89.2814 -109.274 35.7159 -55.6282L38.3519 -52.9962C90.4622 -105.185 174.943 -105.185 227.054 -52.9962L229.69 -55.6282ZM35.7159 -55.6282C18.0573 -37.9432 6.20416 -16.6119 0.200193 5.93428L3.79981 6.89285C9.63964 -15.037 21.1679 -35.7865 38.3519 -52.9962L35.7159 -55.6282Z" fill="black"/>
</svg>
