<svg width="44" height="44" viewBox="0 0 44 44" fill="none" xmlns="http://www.w3.org/2000/svg">
<path fill-rule="evenodd" clip-rule="evenodd" d="M14.666 7.33341C12.7211 7.33341 10.8558 8.10603 9.48057 9.4813C8.1053 10.8566 7.33268 12.7218 7.33268 14.6667V29.3334C7.33268 31.2783 8.1053 33.1436 9.48057 34.5189C10.8558 35.8941 12.7211 36.6667 14.666 36.6667H29.3327C31.2776 36.6667 33.1429 35.8941 34.5181 34.5189C35.8934 33.1436 36.666 31.2783 36.666 29.3334V14.6667C36.666 12.7218 35.8934 10.8566 34.5181 9.4813C33.1429 8.10603 31.2776 7.33341 29.3327 7.33341H14.666ZM6.88784 6.88857C8.95074 4.82567 11.7486 3.66675 14.666 3.66675H29.3327C32.2501 3.66675 35.048 4.82567 37.1109 6.88857C39.1738 8.95147 40.3327 11.7494 40.3327 14.6667V29.3334C40.3327 32.2508 39.1738 35.0487 37.1109 37.1116C35.048 39.1745 32.2501 40.3334 29.3327 40.3334H14.666C11.7486 40.3334 8.95074 39.1745 6.88784 37.1116C4.82494 35.0487 3.66602 32.2508 3.66602 29.3334V14.6667C3.66602 11.7494 4.82494 8.95147 6.88784 6.88857Z" fill="black"/>
<path fill-rule="evenodd" clip-rule="evenodd" d="M23.5399 9.1903C24.4276 9.04638 25.2886 9.56756 25.5728 10.4208C25.7928 11.0817 26.374 12.1898 27.3412 13.1079C28.2771 13.9964 29.5243 14.6667 31.1667 14.6667C32.1792 14.6667 33 15.4875 33 16.5C33 17.5125 32.1792 18.3333 31.1667 18.3333C28.9 18.3333 27.068 17.5475 25.6667 16.4885V27.5C25.6667 28.9504 25.2366 30.3682 24.4308 31.5742C23.625 32.7801 22.4797 33.7201 21.1397 34.2751C19.7997 34.8302 18.3252 34.9754 16.9027 34.6924C15.4801 34.4095 14.1735 33.711 13.1479 32.6855C12.1223 31.6599 11.4239 30.3532 11.1409 28.9307C10.858 27.5081 11.0032 26.0336 11.5582 24.6937C12.1133 23.3537 13.0532 22.2084 14.2592 21.4026C15.4651 20.5968 16.8829 20.1667 18.3333 20.1667C19.3459 20.1667 20.1667 20.9875 20.1667 22C20.1667 23.0125 19.3459 23.8333 18.3333 23.8333C17.6081 23.8333 16.8992 24.0484 16.2962 24.4513C15.6933 24.8542 15.2233 25.4268 14.9458 26.0968C14.6683 26.7668 14.5956 27.5041 14.7371 28.2153C14.8786 28.9266 15.2278 29.5799 15.7406 30.0927C16.2534 30.6055 16.9067 30.9547 17.618 31.0962C18.3293 31.2377 19.0665 31.1651 19.7365 30.8876C20.4065 30.61 20.9792 30.1401 21.3821 29.5371C21.785 28.9341 22 28.2252 22 27.5V11C22 10.1007 22.6523 9.33421 23.5399 9.1903Z" fill="black"/>
</svg>
