<svg width="44" height="44" viewBox="0 0 44 44" fill="none" xmlns="http://www.w3.org/2000/svg">
<path d="M14.2993 3.66675H29.6994C35.566 3.66675 40.3327 8.43341 40.3327 14.3001V29.7001C40.3327 32.5202 39.2124 35.2248 37.2183 37.219C35.2241 39.2131 32.5195 40.3334 29.6994 40.3334H14.2993C8.43268 40.3334 3.66602 35.5667 3.66602 29.7001V14.3001C3.66602 11.4799 4.78631 8.77532 6.78045 6.78118C8.77458 4.78704 11.4792 3.66675 14.2993 3.66675ZM13.9327 7.33341C12.1823 7.33341 10.5035 8.02877 9.26578 9.26651C8.02804 10.5043 7.33268 12.183 7.33268 13.9334V30.0667C7.33268 33.7151 10.2843 36.6667 13.9327 36.6667H30.066C31.8164 36.6667 33.4952 35.9714 34.7329 34.7337C35.9707 33.4959 36.666 31.8172 36.666 30.0667V13.9334C36.666 10.2851 33.7143 7.33341 30.066 7.33341H13.9327ZM31.6243 10.0834C32.2321 10.0834 32.815 10.3249 33.2448 10.7546C33.6746 11.1844 33.916 11.7673 33.916 12.3751C33.916 12.9829 33.6746 13.5658 33.2448 13.9955C32.815 14.4253 32.2321 14.6667 31.6243 14.6667C31.0166 14.6667 30.4337 14.4253 30.0039 13.9955C29.5741 13.5658 29.3327 12.9829 29.3327 12.3751C29.3327 11.7673 29.5741 11.1844 30.0039 10.7546C30.4337 10.3249 31.0166 10.0834 31.6243 10.0834ZM21.9993 12.8334C24.4305 12.8334 26.7621 13.7992 28.4812 15.5183C30.2002 17.2374 31.166 19.5689 31.166 22.0001C31.166 24.4312 30.2002 26.7628 28.4812 28.4819C26.7621 30.201 24.4305 31.1667 21.9993 31.1667C19.5682 31.1667 17.2366 30.201 15.5175 28.4819C13.7985 26.7628 12.8327 24.4312 12.8327 22.0001C12.8327 19.5689 13.7985 17.2374 15.5175 15.5183C17.2366 13.7992 19.5682 12.8334 21.9993 12.8334ZM21.9993 16.5001C20.5407 16.5001 19.1417 17.0795 18.1103 18.111C17.0788 19.1424 16.4993 20.5414 16.4993 22.0001C16.4993 23.4588 17.0788 24.8577 18.1103 25.8892C19.1417 26.9206 20.5407 27.5001 21.9993 27.5001C23.458 27.5001 24.857 26.9206 25.8884 25.8892C26.9199 24.8577 27.4993 23.4588 27.4993 22.0001C27.4993 20.5414 26.9199 19.1424 25.8884 18.111C24.857 17.0795 23.458 16.5001 21.9993 16.5001Z" fill="black"/>
</svg>
