<svg width="63" height="53" viewBox="0 0 63 53" fill="none" xmlns="http://www.w3.org/2000/svg">
<path d="M36.0806 52.84C34.054 52.84 32.5606 52.1467 31.6006 50.76C30.694 49.3733 30.2406 47.56 30.2406 45.32C30.2406 43.6133 30.4806 41.7733 30.9606 39.8C31.5473 37.3467 32.2673 34.8933 33.1206 32.44C31.4673 35.2667 29.8673 37.96 28.3206 40.52C26.774 43.0267 25.654 44.8133 24.9606 45.88C23.8406 47.64 22.534 49.1333 21.0406 50.36C19.6006 51.5333 18.054 52.12 16.4006 52.12C16.0273 52.12 15.6806 52.0667 15.3606 51.96C15.0406 51.9067 14.694 51.8267 14.3206 51.72C12.6673 51.1333 11.3606 50.2533 10.4006 49.08C9.49396 47.8533 9.04063 46.2533 9.04063 44.28C9.04063 43.8 9.06729 43.2933 9.12063 42.76C9.22729 42.1733 9.33396 41.5867 9.44063 41C9.92063 39.0267 10.8273 36.6267 12.1606 33.8C13.494 30.9733 15.1206 27.88 17.0406 24.52C18.9606 21.16 21.0406 17.72 23.2806 14.2C23.4406 13.9333 23.7606 13.3467 24.2406 12.44C24.7206 11.5333 25.174 10.5733 25.6006 9.56001C26.0806 8.54668 26.3206 7.77334 26.3206 7.24001C26.3206 6.76001 26.0806 6.60001 25.6006 6.76001C24.694 7.08001 23.6273 7.77334 22.4006 8.84001C21.174 9.90668 19.8406 11.1333 18.4006 12.52C16.9606 13.9067 15.4406 15.2667 13.8406 16.6C12.294 17.88 10.694 18.9733 9.04063 19.88C7.44063 20.7333 5.86729 21.16 4.32063 21.16C3.94729 21.16 3.54729 21.1333 3.12063 21.08C2.74729 21.0267 2.34729 20.92 1.92063 20.76C1.06729 20.4933 0.640625 19.6933 0.640625 18.36C0.640625 17.1333 0.987292 15.6933 1.68063 14.04C2.42729 12.3867 3.30729 10.76 4.32063 9.16001C4.90729 8.30668 5.57396 7.88001 6.32063 7.88001C6.64063 7.88001 6.80063 8.04001 6.80063 8.36001C6.80063 8.57334 6.72063 8.84001 6.56063 9.16001C6.40063 9.48001 6.32063 9.74668 6.32063 9.96001C6.32063 10.7067 6.96063 11.08 8.24063 11.08C9.30729 11.08 10.694 10.7067 12.4006 9.96001C14.1606 9.21334 16.0806 8.30668 18.1606 7.24001C20.294 6.12001 22.4273 5.02668 24.5606 3.96001C26.694 2.89334 28.6673 2.06668 30.4806 1.48001C32.294 0.84001 33.7873 0.626676 34.9606 0.84001C35.8673 1.05334 36.6406 1.58668 37.2806 2.44001C37.9206 3.29334 38.3473 4.12001 38.5606 4.92001C38.6673 5.24001 38.7206 5.53334 38.7206 5.80001C38.7206 6.65334 38.4273 7.58668 37.8406 8.60001C37.3073 9.61334 36.614 10.6533 35.7606 11.72C33.574 14.5467 31.3606 17.5867 29.1206 20.84C26.934 24.04 24.9606 27.3733 23.2006 30.84C21.494 34.2533 20.2406 37.72 19.4406 41.24C19.2806 41.9333 19.2006 42.52 19.2006 43C19.2006 43.9067 19.4673 44.36 20.0006 44.36C20.534 44.36 21.2006 44.04 22.0006 43.4C22.854 42.7067 23.734 41.88 24.6406 40.92C25.5473 39.96 26.3206 39.0267 26.9606 38.12C27.5473 37.32 28.374 36.04 29.4406 34.28C30.5606 32.4667 31.7873 30.4667 33.1206 28.28C34.454 26.0933 35.7606 23.9067 37.0406 21.72C38.3206 19.48 39.4406 17.5067 40.4006 15.8C41.3073 14.2533 42.054 12.8933 42.6406 11.72C43.2273 10.5467 43.6806 9.69335 44.0006 9.16001C45.014 7.45335 45.894 6.20001 46.6406 5.40001C47.3873 4.60001 48.2673 4.06668 49.2806 3.80001C50.294 3.48001 51.654 3.29334 53.3606 3.24001C55.2273 3.18668 56.534 3.32001 57.2806 3.64001C58.0806 3.96001 58.3206 4.33334 58.0006 4.76001C56.614 6.68001 55.2273 8.86668 53.8406 11.32C52.5073 13.7733 51.2273 16.28 50.0006 18.84C48.774 21.3467 47.6273 23.6933 46.5606 25.88C45.174 28.8133 43.9473 31.8 42.8806 34.84C41.8673 37.8267 41.0673 40.6 40.4806 43.16C39.9473 45.72 39.6806 47.8 39.6806 49.4C39.6806 50.7333 39.8673 51.6133 40.2406 52.04C38.694 52.5733 37.3073 52.84 36.0806 52.84Z" fill="black"/>
<path d="M57.1138 51.48C56.2604 51.48 55.5671 51.2133 55.0337 50.68C54.5004 50.0933 54.2337 49.3467 54.2337 48.44C54.2337 47.3733 54.5271 46.36 55.1138 45.4C55.7004 44.44 56.4204 43.6667 57.2738 43.08C58.1804 42.44 59.0871 42.12 59.9938 42.12C60.8471 42.12 61.5138 42.4133 61.9938 43C62.5271 43.5867 62.7938 44.3333 62.7938 45.24C62.7938 46.3067 62.5004 47.32 61.9137 48.28C61.3271 49.24 60.6071 50.0133 59.7537 50.6C58.9004 51.1867 58.0204 51.48 57.1138 51.48Z" fill="black"/>
</svg>
