<svg width="38" height="38" viewBox="0 0 38 38" fill="none" xmlns="http://www.w3.org/2000/svg">
<path d="M19.0013 33.6667C22.8911 33.6667 26.6217 32.1215 29.3722 29.371C32.1227 26.6204 33.668 22.8899 33.668 19.0001C33.668 15.1102 32.1227 11.3797 29.3722 8.62918C26.6217 5.87865 22.8911 4.33341 19.0013 4.33341C15.1115 4.33341 11.3809 5.87865 8.6304 8.62918C5.87987 11.3797 4.33464 15.1102 4.33464 19.0001C4.33464 22.8899 5.87987 26.6204 8.6304 29.371C11.3809 32.1215 15.1115 33.6667 19.0013 33.6667ZM19.0013 37.3334C8.8758 37.3334 0.667969 29.1256 0.667969 19.0001C0.667969 8.87458 8.8758 0.666748 19.0013 0.666748C29.1268 0.666748 37.3346 8.87458 37.3346 19.0001C37.3346 29.1256 29.1268 37.3334 19.0013 37.3334ZM13.2996 21.1451L8.71997 19.7169C7.72997 19.4144 7.72447 18.7324 8.9418 18.2429L26.7856 11.3496C27.8196 10.9279 28.41 11.4614 28.0745 12.7979L25.0348 27.1346C24.8221 28.1557 24.208 28.3996 23.3555 27.9284L18.6786 24.4671L16.4988 26.5717C16.2751 26.7881 16.0936 26.9732 15.749 27.0191C15.4061 27.0667 15.1238 26.9641 14.9166 26.3958L13.3216 21.1322L13.2996 21.1451Z" fill="black"/>
</svg>
